<svg height="512pt" viewBox="0 -36 512 512" width="512pt" xmlns="http://www.w3.org/2000/svg"><g fill-rule="evenodd"><path d="m10 115.023438 123-53.394532v315.601563l-123 53.394531zm0 0" fill="#a0e557"/><path d="m256 115.023438 123-53.394532v315.601563l-123 53.394531zm0 0" fill="#a0e557"/><path d="m256 115.023438-123-53.394532v315.601563l123 53.394531zm0 0" fill="#e5f8d2"/><path d="m502 115.023438-123-53.394532v315.601563l123 53.394531zm0 0" fill="#e5f8d2"/><path d="m256 10c49.066406 0 88.84375 39.777344 88.84375 88.84375 0 12.703125-2.671875 24.777344-7.476562 35.707031l-81.367188 121.332031-81.367188-121.332031c-4.804687-10.925781-7.476562-23.003906-7.476562-35.707031 0-49.066406 39.777344-88.84375 88.84375-88.84375zm0 0" fill="#ff5d5d"/><path d="m256 147.777344c26.949219 0 48.933594-21.980469 48.933594-48.933594s-21.980469-48.933594-48.933594-48.933594-48.933594 21.984375-48.933594 48.933594c0 26.953125 21.984375 48.933594 48.933594 48.933594zm0 0" fill="#fec96b"/><path d="m505.980469 105.847656-123-53.390625c-.117188-.050781-.238281-.085937-.355469-.128906-.199219-.078125-.398438-.15625-.605469-.21875-.191406-.0625-.386719-.113281-.582031-.164063-.203125-.050781-.402344-.097656-.609375-.136718-.199219-.039063-.402344-.066406-.605469-.089844s-.402344-.046875-.605468-.058594c-.207032-.011718-.414063-.015625-.625-.015625-.195313 0-.394532.003907-.597657.015625-.210937.011719-.417969.035156-.628906.0625-.195313.023438-.390625.050782-.582031.085938-.214844.039062-.421875.089844-.632813.140625-.1875.046875-.375.097656-.5625.15625-.210937.066406-.417969.144531-.625.226562-.113281.046875-.230469.074219-.34375.125l-26.53125 11.515625c-14.128906-37.34375-50.253906-63.972656-92.488281-63.972656s-78.359375 26.628906-92.484375 63.972656l-26.53125-11.515625c-.117187-.050781-.242187-.085937-.359375-.128906-.199219-.078125-.398438-.15625-.605469-.21875-.191406-.0625-.386719-.113281-.582031-.160156-.203125-.050781-.402344-.101563-.609375-.140625-.199219-.035156-.402344-.0625-.605469-.089844-.203125-.023438-.402344-.046875-.605468-.058594-.207032-.011718-.414063-.015625-.625-.015625-.199219 0-.398438.003907-.597657.015625-.210937.011719-.417969.035156-.628906.0625-.195313.023438-.390625.050782-.585937.085938-.210938.039062-.417969.089844-.628907.140625-.1875.050781-.375.097656-.5625.15625-.210937.066406-.417969.144531-.625.226562-.113281.046875-.230469.074219-.34375.125l-123 53.394531c-3.65625 1.582032-6.019531 5.1875-6.019531 9.171876v315.601562c0 3.367188 1.695312 6.511719 4.515625 8.359375 1.652344 1.085937 3.5625 1.640625 5.484375 1.640625 1.351562 0 2.707031-.273438 3.980469-.828125l119.019531-51.664063 119.019531 51.664063c.347657.152344.707031.277344 1.070313.390625.085937.027344.175781.042969.265625.066406.335937.09375.675781.167969 1.015625.222656.117187.019532.234375.039063.351562.054688.425782.054688.851563.09375 1.277344.09375.429688 0 .851562-.039062 1.277344-.09375.117187-.015625.234375-.035156.351562-.050781.339844-.058594.679688-.132813 1.019532-.226563.085937-.023437.175781-.039062.261718-.066406.359375-.109375.71875-.238281 1.070313-.390625l119.019531-51.664063 119.019531 51.664063c1.273438.554687 2.628907.828125 3.980469.828125 1.921875 0 3.832031-.554688 5.484375-1.640625 2.816406-1.847656 4.515625-4.992187 4.515625-8.359375v-315.601562c0-3.984376-2.363281-7.589844-6.019531-9.175782zm-485.980469 15.734375 103-44.710937v293.800781l-103 44.710937zm123-44.710937 15.34375 6.660156c-.777344 4.992188-1.1875 10.105469-1.1875 15.3125 0 13.800781 2.796875 27.167969 8.320312 39.730469.234376.539062.519532 1.058593.847657 1.546875l18.402343 27.441406c3.078126 4.585938 9.292969 5.8125 13.875 2.734375 4.589844-3.074219 5.8125-9.285156 2.738282-13.875l-17.894532-26.683594c-4.175781-9.78125-6.289062-20.171875-6.289062-30.894531 0-43.476562 35.367188-78.84375 78.84375-78.84375s78.84375 35.367188 78.84375 78.84375c0 10.722656-2.113281 21.113281-6.289062 30.894531l-72.554688 108.191407-10.101562-15.058594c-3.074219-4.585938-9.285157-5.808594-13.875-2.734375-4.585938 3.074219-5.808594 9.289062-2.734376 13.875l16.710938 24.914062v156.457031l-103-44.710937zm123 182.054687 79.675781-118.804687c.328125-.488282.609375-1.007813.847657-1.546875 5.523437-12.5625 8.320312-25.929688 8.320312-39.730469 0-5.207031-.40625-10.320312-1.1875-15.3125l15.34375-6.660156v293.800781l-103 44.710937zm226 156.457031-103-44.710937v-293.800781l103 44.710937zm0 0"/><path d="m256 157.777344c32.496094 0 58.933594-26.4375 58.933594-58.933594s-26.4375-58.933594-58.933594-58.933594-58.933594 26.4375-58.933594 58.933594 26.4375 58.933594 58.933594 58.933594zm0-97.867188c21.46875 0 38.933594 17.464844 38.933594 38.933594s-17.464844 38.933594-38.933594 38.933594-38.933594-17.464844-38.933594-38.933594 17.464844-38.933594 38.933594-38.933594zm0 0"/><path d="m215.3125 185.21875c-5.503906 0-10 4.492188-10 10s4.496094 10 10 10c5.511719 0 10.003906-4.492188 10.003906-10s-4.492187-10-10.003906-10zm0 0"/></g></svg>